#!OML:ASF F:\VICON\USERDATA\INSTALL\rory3\rory3.ASF
:FULLY-SPECIFIED
:DEGREES
2992
root 0.42387 17.2806 -0.829547 21.4043 9.77892 3.09854
lowerback 14.445 -1.30673 2.4548
upperback 7.0269 -1.21893 5.89386
thorax -0.581271 -0.631448 4.99135
lowerneck 5.26353 -9.69655 -18.5952
upperneck 13.5102 -16.0139 22.7646
head 6.56603 -7.91593 9.71051
rclavicle -3.18055e-015 -2.38542e-014
rhumerus -19.7612 17.0614 -76.38
rradius 143.605
rwrist -49.3429
rhand 44.4798 20.4074
rfingers 7.12502
rthumb 65.988 14.9663
lclavicle -3.18055e-015 -2.38542e-014
lhumerus -21.2807 -26.8698 92.4213
lradius 139.411
lwrist 65.4208
lhand 43.239 36.3655
lfingers 7.12502
lthumb 65.0196 43.5097
rfemur -31.1817 2.4086 12.876
rtibia 28.9407
rfoot -17.0209 -15.7005
rtoes -19.165
lfemur -34.4618 -14.0088 -17.2956
ltibia 26.5612
lfoot -11.6734 1.96328
ltoes -18.9113
2993
root 0.404491 17.2918 -0.824466 21.412 9.46266 2.7446
lowerback 14.5592 -1.27424 2.21227
upperback 7.07615 -1.20981 5.70177
thorax -0.591389 -0.630513 4.9254
lowerneck 4.84353 -9.54523 -18.8602
upperneck 13.6224 -15.7673 22.6688
head 6.63266 -7.78945 9.72908
rclavicle 3.02153e-014 -4.13472e-014
rhumerus -19.4617 16.9104 -76.0836
rradius 143.57
rwrist -49.3625
rhand 44.255 20.2325
rfingers 7.12502
rthumb 65.8142 14.4723
lclavicle 3.02153e-014 -4.13472e-014
lhumerus -21.0713 -26.7549 92.3411
lradius 139.459
lwrist 65.2244
lhand 43.0715 35.9236
lfingers 7.12502
lthumb 64.8872 43.2872
rfemur -31.152 2.65312 13.2492
rtibia 28.5442
rfoot -16.7401 -15.4784
rtoes -19.5094
lfemur -34.5189 -14.0386 -16.7946
ltibia 26.6123
lfoot -11.682 2.56857
ltoes -20.6063
2994
root 0.387761 17.2963 -0.822232 21.3923 9.22729 2.38815
lowerback 14.6708 -1.17063 2.28046
upperback 7.08215 -1.07129 5.31127
thorax -0.666331 -0.553592 4.45161
lowerneck 4.66671 -9.49475 -18.7869
upperneck 13.6957 -15.6901 22.6806
head 6.66325 -7.73916 9.72269
rclavicle -8.74653e-015 -7.95139e-014
rhumerus -19.5335 16.3906 -76.0972
rradius 143.557
rwrist -49.3072
rhand 44.2155 20.1766
rfingers 7.12502
rthumb 65.7837 14.3609
lclavicle -8.74653e-015 -7.95139e-014
lhumerus -20.8791 -27.1918 92.0422
lradius 139.511
lwrist 65.1798
lhand 43.0778 35.4634
lfingers 7.12502
lthumb 64.8921 42.8188
rfemur -31.1427 2.67272 13.6846
rtibia 28.2862
rfoot -16.5546 -15.1319
rtoes -20.0877
lfemur -34.6054 -14.0843 -16.3034
ltibia 26.7641
lfoot -11.7395 2.97933
ltoes -20.4357
2995
root 0.366097 17.2948 -0.825446 21.4067 9.09139 2.077
lowerback 14.7552 -1.1235 2.31287
upperback 7.10008 -1.01325 4.90457
thorax -0.706912 -0.517387 3.99344
lowerneck 4.5359 -9.43931 -18.6529
upperneck 13.6977 -15.5802 22.5628
head 6.63923 -7.67845 9.66088
rclavicle -1.19271e-014 4.77083e-015
rhumerus -19.5642 15.9213 -76.1878
rradius 143.526
rwrist -49.2701
rhand 44.2905 20.3036
rfingers 7.12502
rthumb 65.8417 14.5935
lclavicle -1.19271e-014 4.77083e-015
lhumerus -20.672 -27.6252 91.6949
lradius 139.59
lwrist 65.1298
lhand 42.8762 35.3296
lfingers 7.12502
lthumb 64.7322 42.946
rfemur -31.2485 2.64689 14.1054
rtibia 28.1948
rfoot -16.3986 -14.8796
rtoes -20.6879
lfemur -34.8089 -14.0631 -15.8513
ltibia 27.0171
lfoot -11.9151 3.28494
ltoes -19.64
2996
root 0.344299 17.2881 -0.830657 21.3641 8.85914 1.97403
lowerback 14.9842 -1.07594 2.13766
upperback 7.1723 -0.978744 4.40513
thorax -0.763169 -0.496161 3.56269
lowerneck 4.30824 -9.40784 -18.4769
upperneck 13.7393 -15.4835 22.3562
head 6.6375 -7.61808 9.55215
rclavicle -3.97569e-015 -3.49861e-014
rhumerus -19.3614 15.5588 -76.3057
rradius 143.343
rwrist -49.1805
rhand 44.2697 20.5652
rfingers 7.12502
rthumb 65.8256 14.8257
lclavicle -3.97569e-015 -3.49861e-014
lhumerus -20.3852 -28.0749 91.3055
lradius 139.662
lwrist 65.1294
lhand 42.2611 34.8694
lfingers 7.12502
lthumb 64.241 43.2614
rfemur -31.3627 2.51876 14.3192
rtibia 28.2736
rfoot -16.3493 -14.5314
rtoes -20.9478
lfemur -34.9474 -14.0063 -15.6941
ltibia 27.3543
lfoot -12.2631 3.73119
ltoes -19.687
2997
root 0.325496 17.2777 -0.836789 21.2314 8.5003 1.9456
lowerback 15.3141 -1.01305 1.8432
upperback 7.30149 -0.941117 3.83229
thorax -0.811356 -0.475024 3.12427
lowerneck 4.09171 -9.36505 -18.2805
upperneck 13.8293 -15.3867 22.1923
head 6.6511 -7.55532 9.45864
rclavicle -2.3059e-014 -1.74931e-014
rhumerus -19.1298 15.3681 -76.5007
rradius 143.127
rwrist -49.1096
rhand 44.2822 20.7707
rfingers 7.12502
rthumb 65.8353 15.0488
lclavicle -2.3059e-014 -1.74931e-014
lhumerus -20.1005 -28.5227 90.7977
lradius 139.755
lwrist 65.0801
lhand 41.5181 33.8887
lfingers 7.12502
lthumb 63.641 43.1773
rfemur -31.4398 2.39526 14.4334
rtibia 28.461
rfoot -16.4022 -14.0908
rtoes -21.0707
lfemur -34.9689 -13.9137 -15.6876
ltibia 27.7668
lfoot -12.6334 4.0902
ltoes -19.3509
2998
root 0.306163 17.2663 -0.841718 21.1719 8.09826 1.87521
lowerback 15.457 -1.02453 1.24328
upperback 7.45595 -1.0454 3.51538
thorax -0.715994 -0.536718 3.1476
lowerneck 3.76823 -9.19408 -18.5177
upperneck 14.0356 -15.0852 21.8037
head 6.69199 -7.4151 9.37835
rclavicle 2.06736e-014 1.59028e-015
rhumerus -18.8478 15.739 -76.3012
rradius 143.124
rwrist -49.232
rhand 44.3412 20.8408
rfingers 7.12502
rthumb 65.8809 15.2024
lclavicle 2.06736e-014 1.59028e-015
lhumerus -19.9015 -28.4405 90.6131
lradius 139.932
lwrist 64.9525
lhand 41.2034 33.6113
lfingers 7.12502
lthumb 63.3849 43.2669
rfemur -31.6726 2.28596 14.5722
rtibia 28.7446
rfoot -16.5765 -13.5834
rtoes -20.9668
lfemur -35.0942 -13.78 -15.6312
ltibia 28.245
lfoot -12.9972 4.33606
ltoes -18.1846
2999
root 0.285492 17.2539 -0.847643 21.0953 7.74835 1.65912
lowerback 15.6046 -1.18349 0.533208
upperback 7.6086 -1.34994 3.4665
thorax -0.601676 -0.706857 3.54863
lowerneck 3.38075 -8.84423 -19.2725
upperneck 14.3057 -14.5031 21.2305
head 6.72892 -7.17048 9.3512
rclavicle 1.59028e-015 -1.51076e-014
rhumerus -18.3355 16.7737 -75.7738
rradius 143.122
rwrist -49.4754
rhand 44.216 20.3297
rfingers 7.12502
rthumb 65.7841 14.5147
lclavicle 1.59028e-015 -1.51076e-014
lhumerus -19.7424 -27.7858 90.7464
lradius 140.025
lwrist 64.7492
lhand 41.6591 34.1423
lfingers 7.12502
lthumb 63.7554 43.264
rfemur -31.9555 2.18189 14.8876
rtibia 29.0971
rfoot -16.8086 -13.0862
rtoes -20.9428
lfemur -35.2999 -13.5774 -15.4225
ltibia 28.8047
lfoot -13.3991 4.58287
ltoes -17.1977
3000
root 0.264156 17.2355 -0.856448 20.9612 7.38282 1.4788
lowerback 16.0322 -1.29058 0.083762
upperback 7.66094 -1.55024 3.15665
thorax -0.756455 -0.811352 3.52004
lowerneck 3.14276 -8.54298 -19.7654
upperneck 14.5818 -14.0282 20.8334
head 6.75795 -6.96876 9.34043
rclavicle 2.74323e-014 -5.1684e-015
rhumerus -18.067 17.5946 -75.7102
rradius 143.031
rwrist -49.543
rhand 43.9904 19.8403
rfingers 7.12502
rthumb 65.6088 13.7107
lclavicle 2.74323e-014 -5.1684e-015
lhumerus -19.6253 -27.6187 90.6316
lradius 140.084
lwrist 64.612
lhand 42.3296 34.959
lfingers 7.12502
lthumb 64.2959 43.2662
rfemur -32.1974 2.07632 15.1747
rtibia 29.5022
rfoot -17.0471 -12.6097
rtoes -21.1908
lfemur -35.5008 -13.2881 -15.3103
ltibia 29.451
lfoot -13.7205 4.92614
ltoes -17.9913
3001
root 0.241967 17.2145 -0.867781 20.8447 7.05958 1.34367
lowerback 16.3651 -1.35792 -0.528971
upperback 7.74571 -1.72732 2.90069
thorax -0.819187 -0.910116 3.6355
lowerneck 2.97256 -8.26206 -20.316
upperneck 14.82 -13.5821 20.4566
head 6.77609 -6.78877 9.34557
rclavicle 2.78299e-015 -5.1684e-015
rhumerus -17.7738 18.4494 -75.5422
rradius 142.936
rwrist -49.6249
rhand 44.0666 20.0676
rfingers 7.12502
rthumb 65.6681 14.0437
lclavicle 2.78299e-015 -5.1684e-015
lhumerus -19.4159 -27.6256 90.5316
lradius 140.136
lwrist 64.3555
lhand 42.7489 35.2771
lfingers 7.12502
lthumb 64.631 43.0565
rfemur -32.4694 1.94834 15.4158
rtibia 29.9567
rfoot -17.3466 -12.1194
rtoes -20.9704
lfemur -35.7653 -13.0038 -15.2447
ltibia 30.1722
lfoot -14.064 5.21105
ltoes -18.8587
